<svg width="191" height="71" viewBox="0 0 191 71" fill="none" xmlns="http://www.w3.org/2000/svg">
<path d="M75.2 33.75L75.425 42.75C75.425 44.64 75.17 46.305 74.66 47.745C74.18 49.215 73.58 50.31 72.86 51.03C71.39 52.56 70.1 53.43 68.99 53.64L68.225 53.82C67.775 53.82 67.55 53.685 67.55 53.415L67.775 52.74C69.965 49.71 71.06 42.27 71.06 30.42C71.06 29.34 71.045 28.53 71.015 27.99C70.385 27.99 69.755 28.035 69.125 28.125H69.08C68.75 28.125 68.585 27.96 68.585 27.63L68.72 25.92C68.75 25.65 68.96 25.515 69.35 25.515H70.97V22.5L71.06 18.225C71.06 18.015 71.09 17.79 71.15 17.55C71.24 17.28 71.57 16.89 72.14 16.38C72.71 15.84 73.55 15.36 74.66 14.94C75.77 14.49 76.715 14.265 77.495 14.265C78.305 14.265 78.71 14.505 78.71 14.985C78.71 15.165 78.575 15.315 78.305 15.435C77.435 15.705 76.715 16.485 76.145 17.775C75.605 19.035 75.335 21.195 75.335 24.255V25.515C76.865 25.455 77.87 25.38 78.35 25.29C78.56 25.29 78.665 25.47 78.665 25.83C78.665 26.19 78.5 26.64 78.17 27.18C77.87 27.69 77.48 27.96 77 27.99C76.55 27.99 75.98 27.975 75.29 27.945C75.23 30.225 75.2 32.16 75.2 33.75ZM93.0506 32.94L93.2306 34.515C93.2306 35.085 92.6906 35.37 91.6106 35.37C89.4206 35.37 88.3256 34.545 88.3256 32.895C88.3256 32.505 88.4306 31.965 88.6406 31.275C88.8506 30.585 88.9556 29.985 88.9556 29.475C88.9556 28.965 88.8056 28.53 88.5056 28.17C88.2056 27.78 87.7706 27.585 87.2006 27.585C86.6306 27.585 86.1356 27.795 85.7156 28.215C85.3256 28.605 85.0856 29.01 84.9956 29.43L84.8156 30.06C84.6356 30.99 84.5456 32.55 84.5456 34.74C84.5456 36.9 84.5756 38.61 84.6356 39.87C84.6956 41.1 84.7556 41.955 84.8156 42.435C84.8756 42.885 84.9056 43.155 84.9056 43.245C84.9056 43.995 84.4406 44.595 83.5106 45.045C82.5806 45.525 81.6506 45.765 80.7206 45.765C79.7906 45.765 79.3256 45.57 79.3256 45.18L79.5506 43.785C79.9706 41.175 80.1806 37.77 80.1806 33.57C80.1806 29.37 80.0306 26.52 79.7306 25.02C79.7306 24.66 80.0456 24.48 80.6756 24.48C82.2956 24.48 83.3756 25.035 83.9156 26.145C83.9456 26.265 83.9906 26.325 84.0506 26.325C84.1406 26.325 84.3506 26.19 84.6806 25.92C85.6706 25.11 86.8406 24.705 88.1906 24.705C89.0306 24.705 89.8706 24.87 90.7106 25.2C92.4206 25.89 93.2756 27.33 93.2756 29.52L93.0506 32.94ZM109.297 31.5L109.207 37.26C109.207 41.25 109.642 43.65 110.512 44.46C110.632 44.58 110.692 44.715 110.692 44.865C110.692 45.315 109.717 45.54 107.767 45.54C105.847 45.54 104.827 44.97 104.707 43.83C104.677 43.56 104.662 43.005 104.662 42.165L104.842 34.965C104.842 34.755 104.722 34.65 104.482 34.65C103.042 34.65 101.692 35.055 100.432 35.865C99.172 36.675 98.542 37.71 98.542 38.97C98.542 39.63 98.722 40.185 99.082 40.635C99.442 41.085 99.877 41.31 100.387 41.31C100.927 41.31 101.362 41.205 101.692 40.995C102.052 40.785 102.262 40.665 102.322 40.635C102.832 40.695 103.087 41.235 103.087 42.255C103.087 43.245 102.622 44.055 101.692 44.685C100.762 45.285 99.787 45.585 98.767 45.585C97.747 45.585 96.862 45.405 96.112 45.045C95.392 44.685 94.867 44.28 94.537 43.83C94.207 43.38 93.937 42.87 93.727 42.3C93.517 41.61 93.412 41.01 93.412 40.5C93.412 38.4 94.072 36.72 95.392 35.46C96.712 34.2 98.407 33.3 100.477 32.76C103.207 32.22 104.632 31.725 104.752 31.275C104.842 30.945 104.887 30.39 104.887 29.61C104.887 28.02 104.077 27.225 102.457 27.225C101.767 27.225 101.152 27.45 100.612 27.9C100.072 28.32 99.802 28.86 99.802 29.52L100.072 30.6C100.012 31.11 99.472 31.41 98.452 31.5L97.957 31.545C97.057 31.545 96.337 31.32 95.797 30.87C95.287 30.42 95.032 29.82 95.032 29.07C95.032 28.59 95.182 28.065 95.482 27.495C95.812 26.895 96.217 26.415 96.697 26.055C97.177 25.695 97.912 25.38 98.902 25.11C99.922 24.81 100.897 24.66 101.827 24.66C102.757 24.66 103.477 24.69 103.987 24.75C104.497 24.81 105.187 24.96 106.057 25.2C106.957 25.41 107.692 25.83 108.262 26.46C108.862 27.09 109.177 27.765 109.207 28.485C109.267 29.175 109.297 30.18 109.297 31.5ZM114.991 26.865C115.651 26.175 116.521 25.605 117.601 25.155C118.681 24.675 119.716 24.435 120.706 24.435C121.696 24.435 122.701 24.66 123.721 25.11C123.841 25.11 123.931 25.08 123.991 25.02C124.771 24.24 125.911 23.85 127.411 23.85C127.771 23.85 127.951 24.015 127.951 24.345C127.951 24.375 127.921 24.51 127.861 24.75C127.801 24.99 127.726 25.35 127.636 25.83C127.546 26.28 127.471 26.835 127.411 27.495C127.201 29.205 127.081 31.095 127.051 33.165C127.051 35.235 127.051 37.305 127.051 39.375L127.186 48.825C127.186 51.855 126.406 54.375 124.846 56.385C124.216 57.195 123.256 57.9 121.966 58.5C120.706 59.1 119.221 59.4 117.511 59.4C117.121 59.16 116.926 58.92 116.926 58.68C116.926 58.44 117.091 58.245 117.421 58.095C119.311 57.225 120.661 55.155 121.471 51.885C122.281 48.645 122.686 43.71 122.686 37.08L122.596 30.78L122.461 27.72C122.461 27.45 122.041 27.255 121.201 27.135C120.121 27.135 119.206 27.495 118.456 28.215C117.736 28.905 117.241 29.82 116.971 30.96C116.491 32.79 116.251 34.38 116.251 35.73C116.251 37.05 116.461 38.22 116.881 39.24C117.331 40.26 118.096 40.77 119.176 40.77C119.476 40.77 119.746 40.71 119.986 40.59C120.256 40.47 120.436 40.41 120.526 40.41C120.826 40.41 120.976 40.71 120.976 41.31C120.976 41.91 120.931 42.405 120.841 42.795C120.751 43.155 120.571 43.56 120.301 44.01C119.701 45 118.531 45.495 116.791 45.495C115.051 45.495 113.806 44.865 113.056 43.605C112.276 42.315 111.826 41.16 111.706 40.14C111.526 38.61 111.436 37.605 111.436 37.125C111.436 36.645 111.436 36.27 111.436 36C111.466 35.7 111.541 35.13 111.661 34.29C111.811 33.42 111.991 32.61 112.201 31.86C112.441 31.08 112.801 30.225 113.281 29.295C113.761 28.335 114.331 27.525 114.991 26.865ZM145.025 31.5L144.935 37.26C144.935 41.25 145.37 43.65 146.24 44.46C146.36 44.58 146.42 44.715 146.42 44.865C146.42 45.315 145.445 45.54 143.495 45.54C141.575 45.54 140.555 44.97 140.435 43.83C140.405 43.56 140.39 43.005 140.39 42.165L140.57 34.965C140.57 34.755 140.45 34.65 140.21 34.65C138.77 34.65 137.42 35.055 136.16 35.865C134.9 36.675 134.27 37.71 134.27 38.97C134.27 39.63 134.45 40.185 134.81 40.635C135.17 41.085 135.605 41.31 136.115 41.31C136.655 41.31 137.09 41.205 137.42 40.995C137.78 40.785 137.99 40.665 138.05 40.635C138.56 40.695 138.815 41.235 138.815 42.255C138.815 43.245 138.35 44.055 137.42 44.685C136.49 45.285 135.515 45.585 134.495 45.585C133.475 45.585 132.59 45.405 131.84 45.045C131.12 44.685 130.595 44.28 130.265 43.83C129.935 43.38 129.665 42.87 129.455 42.3C129.245 41.61 129.14 41.01 129.14 40.5C129.14 38.4 129.8 36.72 131.12 35.46C132.44 34.2 134.135 33.3 136.205 32.76C138.935 32.22 140.36 31.725 140.48 31.275C140.57 30.945 140.615 30.39 140.615 29.61C140.615 28.02 139.805 27.225 138.185 27.225C137.495 27.225 136.88 27.45 136.34 27.9C135.8 28.32 135.53 28.86 135.53 29.52L135.8 30.6C135.74 31.11 135.2 31.41 134.18 31.5L133.685 31.545C132.785 31.545 132.065 31.32 131.525 30.87C131.015 30.42 130.76 29.82 130.76 29.07C130.76 28.59 130.91 28.065 131.21 27.495C131.54 26.895 131.945 26.415 132.425 26.055C132.905 25.695 133.64 25.38 134.63 25.11C135.65 24.81 136.625 24.66 137.555 24.66C138.485 24.66 139.205 24.69 139.715 24.75C140.225 24.81 140.915 24.96 141.785 25.2C142.685 25.41 143.42 25.83 143.99 26.46C144.59 27.09 144.905 27.765 144.935 28.485C144.995 29.175 145.025 30.18 145.025 31.5ZM161.473 32.94L161.653 34.515C161.653 35.085 161.113 35.37 160.033 35.37C157.843 35.37 156.748 34.545 156.748 32.895C156.748 32.505 156.853 31.965 157.063 31.275C157.273 30.585 157.378 29.985 157.378 29.475C157.378 28.965 157.228 28.53 156.928 28.17C156.628 27.78 156.193 27.585 155.623 27.585C155.053 27.585 154.558 27.795 154.138 28.215C153.748 28.605 153.508 29.01 153.418 29.43L153.238 30.06C153.058 30.99 152.968 32.55 152.968 34.74C152.968 36.9 152.998 38.61 153.058 39.87C153.118 41.1 153.178 41.955 153.238 42.435C153.298 42.885 153.328 43.155 153.328 43.245C153.328 43.995 152.863 44.595 151.933 45.045C151.003 45.525 150.073 45.765 149.143 45.765C148.213 45.765 147.748 45.57 147.748 45.18L147.973 43.785C148.393 41.175 148.603 37.77 148.603 33.57C148.603 29.37 148.453 26.52 148.153 25.02C148.153 24.66 148.468 24.48 149.098 24.48C150.718 24.48 151.798 25.035 152.338 26.145C152.368 26.265 152.413 26.325 152.473 26.325C152.563 26.325 152.773 26.19 153.103 25.92C154.093 25.11 155.263 24.705 156.613 24.705C157.453 24.705 158.293 24.87 159.133 25.2C160.843 25.89 161.698 27.33 161.698 29.52L161.473 32.94ZM168.38 20.925L167.3 20.88C166.49 20.88 165.965 21.075 165.725 21.465C165.665 21.555 165.59 21.6 165.5 21.6C165.11 21.6 164.915 20.94 164.915 19.62C164.915 18.27 165.11 17.415 165.5 17.055C165.92 16.695 166.625 16.515 167.615 16.515C168.635 16.515 169.325 16.695 169.685 17.055C170.045 17.385 170.225 17.955 170.225 18.765C170.225 19.575 170.09 20.145 169.82 20.475C169.55 20.775 169.07 20.925 168.38 20.925ZM164.78 43.65L165.275 33.165C165.275 30.675 164.99 28.98 164.42 28.08C164.24 27.78 164.03 27.555 163.79 27.405C163.61 27.345 163.52 27.225 163.52 27.045C163.52 26.505 164.285 25.98 165.815 25.47C167.345 24.96 168.455 24.705 169.145 24.705C169.865 24.705 170.24 24.885 170.27 25.245C170.27 25.845 170.18 27.555 170 30.375C169.85 33.165 169.775 36.105 169.775 39.195C169.775 42.285 169.955 44.205 170.315 44.955C170.405 45.105 170.45 45.255 170.45 45.405C170.45 45.795 169.88 45.99 168.74 45.99C167.6 45.99 166.43 45.69 165.23 45.09C164.93 44.94 164.78 44.46 164.78 43.65ZM188.223 31.5L188.133 37.26C188.133 41.25 188.568 43.65 189.438 44.46C189.558 44.58 189.618 44.715 189.618 44.865C189.618 45.315 188.643 45.54 186.693 45.54C184.773 45.54 183.753 44.97 183.633 43.83C183.603 43.56 183.588 43.005 183.588 42.165L183.768 34.965C183.768 34.755 183.648 34.65 183.408 34.65C181.968 34.65 180.618 35.055 179.358 35.865C178.098 36.675 177.468 37.71 177.468 38.97C177.468 39.63 177.648 40.185 178.008 40.635C178.368 41.085 178.803 41.31 179.313 41.31C179.853 41.31 180.288 41.205 180.618 40.995C180.978 40.785 181.188 40.665 181.248 40.635C181.758 40.695 182.013 41.235 182.013 42.255C182.013 43.245 181.548 44.055 180.618 44.685C179.688 45.285 178.713 45.585 177.693 45.585C176.673 45.585 175.788 45.405 175.038 45.045C174.318 44.685 173.793 44.28 173.463 43.83C173.133 43.38 172.863 42.87 172.653 42.3C172.443 41.61 172.338 41.01 172.338 40.5C172.338 38.4 172.998 36.72 174.318 35.46C175.638 34.2 177.333 33.3 179.403 32.76C182.133 32.22 183.558 31.725 183.678 31.275C183.768 30.945 183.813 30.39 183.813 29.61C183.813 28.02 183.003 27.225 181.383 27.225C180.693 27.225 180.078 27.45 179.538 27.9C178.998 28.32 178.728 28.86 178.728 29.52L178.998 30.6C178.938 31.11 178.398 31.41 177.378 31.5L176.883 31.545C175.983 31.545 175.263 31.32 174.723 30.87C174.213 30.42 173.958 29.82 173.958 29.07C173.958 28.59 174.108 28.065 174.408 27.495C174.738 26.895 175.143 26.415 175.623 26.055C176.103 25.695 176.838 25.38 177.828 25.11C178.848 24.81 179.823 24.66 180.753 24.66C181.683 24.66 182.403 24.69 182.913 24.75C183.423 24.81 184.113 24.96 184.983 25.2C185.883 25.41 186.618 25.83 187.188 26.46C187.788 27.09 188.103 27.765 188.133 28.485C188.193 29.175 188.223 30.18 188.223 31.5Z" fill="white"/>
<path d="M44.2188 26.1866C40.6063 9.15314 31.1957 10.4533 27.2542 13.2061C27.2294 13.2234 27.2272 13.2585 27.2478 13.2807C39.7583 26.7127 43.9889 38.1271 37.4833 51.3315C37.4642 51.3704 37.5027 51.414 37.5444 51.4021C53.8364 46.7616 49.9755 34.7708 45.9937 29.338C45.9909 29.3342 45.9879 29.3311 45.9841 29.3282C45.4801 28.9398 44.4301 27.7757 44.2188 26.1866Z" fill="white"/>
<path d="M34.1254 51.853C43.5179 37.6864 31.8414 21.6974 24.4433 15.183C24.3765 15.1241 24.2816 15.1194 24.207 15.1679C23.6423 15.5351 21.3368 17.0511 20.4938 17.8662C19.6767 18.6563 17.8149 20.7916 17.267 21.4235C17.1858 21.5171 17.215 21.6638 17.3207 21.7283C35.7265 32.9739 27.6508 46.7758 20.6658 51.5744C20.6275 51.6007 20.6422 51.6587 20.6885 51.663C21.8161 51.7686 25.8208 51.9402 34.0835 51.8757C34.1001 51.8756 34.1162 51.8668 34.1254 51.853Z" fill="white"/>
<path d="M16.2884 42.447C18.2558 36.4152 12.7966 32.7608 9.70249 32.4973C9.63127 32.4912 9.58873 32.4162 9.6202 32.352C9.91874 31.7433 11.1776 29.2196 12.2698 27.6835C13.2758 26.2685 14.8077 24.3902 15.1202 24.009C15.153 23.969 15.2112 23.963 15.2539 23.9921C22.2548 28.7615 24.1766 30.5611 25.168 35.4825C26.163 40.422 22.5721 49.0144 16.3036 50.1861C10.87 51.2018 6.68246 49.8707 5.42971 47.2367C3.99017 44.2099 5.00162 37.0427 9.04364 36.2744C12.88 35.5452 13.8614 39.1322 13.7153 41.1808C13.682 41.6485 13.1632 41.8143 12.7908 41.5294L11.92 40.863C11.4033 40.4676 10.6406 40.6678 10.5012 41.3032C9.54165 45.6764 14.9146 46.659 16.2884 42.447Z" fill="white"/>
<path d="M46.1045 17.4829C44.3316 20.4236 44.4645 20.406 44.9293 21.3585L49.1124 29.9314C49.5772 30.884 49.8515 31.9295 51.7474 31.9478C55.3685 31.7973 57.6092 33.4505 60.0695 37.0119C60.1013 37.0578 60.1726 37.0269 60.1579 36.973C59.3633 34.0591 57.1396 30.1192 52.7858 26.7739C52.7639 26.7571 52.7589 26.7261 52.7762 26.7046C53.9392 25.2495 57.654 24.0966 60.3639 24.3359C60.4145 24.3403 60.4381 24.2739 60.3977 24.2433C55.661 20.658 52.5462 20.234 51.5741 20.4748C50.9097 20.5632 49.997 20.8198 50.1568 19.9871C50.7243 14.4171 47.8829 10.9666 46.2468 9.81753C46.2044 9.78779 46.1517 9.83466 46.1748 9.88095C46.9088 11.3489 47.8071 14.6587 46.1045 17.4829Z" fill="white"/>
<path d="M34.1254 51.853C43.5179 37.6864 31.8414 21.6974 24.4433 15.183C24.3765 15.1241 24.2816 15.1194 24.207 15.1679C23.6423 15.5351 21.3368 17.0511 20.4938 17.8662C19.6767 18.6563 17.8149 20.7916 17.267 21.4235C17.1858 21.5171 17.215 21.6638 17.3207 21.7283C35.7265 32.9739 27.6508 46.7758 20.6658 51.5744C20.6275 51.6007 20.6422 51.6587 20.6885 51.663C21.8161 51.7686 25.8208 51.9402 34.0835 51.8757C34.1001 51.8756 34.1162 51.8668 34.1254 51.853Z" fill="white"/>
<path d="M16.2884 42.447C18.2558 36.4152 12.7966 32.7608 9.70249 32.4973C9.63127 32.4912 9.58873 32.4162 9.6202 32.352C9.91874 31.7433 11.1776 29.2196 12.2698 27.6835C13.2758 26.2685 14.8077 24.3902 15.1202 24.009C15.153 23.969 15.2112 23.963 15.2539 23.9921C22.2548 28.7615 24.1766 30.5611 25.168 35.4825C26.163 40.422 22.5721 49.0144 16.3036 50.1861C10.87 51.2018 6.68246 49.8707 5.42971 47.2367C3.99017 44.2099 5.00162 37.0427 9.04364 36.2744C12.88 35.5452 13.8614 39.1322 13.7153 41.1808C13.682 41.6485 13.1632 41.8143 12.7908 41.5294L11.92 40.863C11.4033 40.4676 10.6406 40.6678 10.5012 41.3032C9.54165 45.6764 14.9146 46.659 16.2884 42.447Z" fill="white"/>
<path d="M46.1045 17.4829C44.3316 20.4236 44.4645 20.406 44.9293 21.3585L49.1124 29.9314C49.5772 30.884 49.8515 31.9295 51.7474 31.9478C55.3685 31.7973 57.6092 33.4505 60.0695 37.0119C60.1013 37.0578 60.1726 37.0269 60.1579 36.973C59.3633 34.0591 57.1396 30.1192 52.7858 26.7739C52.7639 26.7571 52.7589 26.7261 52.7762 26.7046C53.9392 25.2495 57.654 24.0966 60.3639 24.3359C60.4145 24.3403 60.4381 24.2739 60.3977 24.2433C55.661 20.658 52.5462 20.234 51.5741 20.4748C50.9097 20.5632 49.997 20.8198 50.1568 19.9871C50.7243 14.4171 47.8829 10.9666 46.2468 9.81753C46.2044 9.78779 46.1517 9.83466 46.1748 9.88095C46.9088 11.3489 47.8071 14.6587 46.1045 17.4829Z" fill="white"/>
</svg>
